:SAMPLES-PER-SECOND 30
:FULLY-SPECIFIED
:DEGREES
1417
root  -8.15738 37.6476 -4.76444 -122.155 -87.4729 111.016
RightUpLeg  29.2601 -15.1124 -12.4823
RightLeg  16.8356 7.20281 2.66317
RightFoot  -22.7865 0.724242 8.6706
RightToes  2.32829e-010 0 -3.6325e-017
Spine  8.32829 -0.0339512 1.93946
Spine1  9.86299 1.43981 -4.99796
HEad  -4.34714 5.53376 -4.64068
LeftShoulder1  0.124111 3.14594 -28.4613
LeftArm  -11.4602 11.3819 -32.5309
LeftForeArm  65.6635 -79.1047 -78.8027
LeftHand  0.0298134 2.42812 -1.6912
RightShoulder  -0.325454 -4.51609 25.0259
RightArm  -7.29125 -18.5067 36.6898
RightForeArm  119.087 71.5446 143.564
RightHand  -0.126115 -2.23718 -4.30265
LeftUpLeg  -15.6909 1.64963 -7.59631
LeftLeg  14.3843 7.08338 1.86448
LeftFoot  9.15126 -1.71444 9.29062
LeftToes  -3.54706e-010 1.16038e-010 5.28031e-012
1418
root  -9.67677 37.4311 -4.74139 -79.8527 -86.1379 68.3818
RightUpLeg  27.7884 -14.9932 -15.1575
RightLeg  26.0421 7.79671 3.80821
RightFoot  -20.7992 1.07974 15.3773
RightToes  2.32829e-010 0 -3.6325e-017
Spine  8.66032 -0.639333 -0.536379
Spine1  9.62114 0.522228 -5.14115
HEad  -2.90527 5.29375 -3.98375
LeftShoulder1  0.0997733 3.21559 -28.459
LeftArm  -11.4324 12.0841 -32.4805
LeftForeArm  64.1257 -79.0425 -76.4355
LeftHand  0.0686385 1.81113 -2.61448
RightShoulder  -0.370404 -4.63451 25.7503
RightArm  -6.53082 -19.1328 36.1017
RightForeArm  117.871 72.2456 141.867
RightHand  -0.122969 -1.86903 -3.78569
LeftUpLeg  -16.3954 0.417363 -10.244
LeftLeg  21.2185 6.74699 3.25715
LeftFoot  5.06525 -1.59386 10.7896
LeftToes  -3.54706e-010 1.16038e-010 5.28031e-012
1419
root  -10.9999 37.4716 -4.74502 -89.5247 -85.222 77.9861
RightUpLeg  22.0245 -11.2845 -15.0365
RightLeg  38.2251 5.95829 4.74757
RightFoot  -12.3666 0.160228 20.7435
RightToes  2.32829e-010 0 -3.6325e-017
Spine  8.91406 -0.208369 -1.8294
Spine1  10.1136 0.738263 -5.79529
HEad  -2.06341 4.92815 -3.91768
LeftShoulder1  0.144067 3.0889 -28.5879
LeftArm  -11.228 12.3305 -32.6567
LeftForeArm  60.9212 -78.876 -72.8523
LeftHand  0.0624871 2.15729 -2.72958
RightShoulder  -0.358935 -4.5973 25.7844
RightArm  -6.16993 -19.7445 36.1683
RightForeArm  117.553 72.5996 140.992
RightHand  -0.118127 -2.26608 -4.02431
LeftUpLeg  -15.453 1.86179 -11.2371
LeftLeg  23.9291 6.26787 3.38
LeftFoot  1.79414 -1.3045 11.1801
LeftToes  -3.54706e-010 1.16038e-010 5.28031e-012
1420
root  -12.2547 37.5877 -4.68493 -94.0742 -84.3439 82.7855
RightUpLeg  13.6963 -7.66863 -14.7792
RightLeg  51.5097 4.76589 6.10444
RightFoot  1.70241 -1.70458 15.7717
RightToes  2.32829e-010 0 -3.6325e-017
Spine  9.34484 -0.133247 -2.83328
Spine1  10.0716 0.65028 -6.05716
HEad  -2.33597 5.4968 -4.58186
LeftShoulder1  0.119312 3.16133 -28.6902
LeftArm  -11.1186 12.5146 -32.7655
LeftForeArm  60.616 -78.8545 -72.3712
LeftHand  0.0605702 2.02227 -2.52409
RightShoulder  -0.332788 -4.52287 25.5449
RightArm  -5.81743 -19.2017 35.9805
RightForeArm  116.402 72.9888 139.858
RightHand  -0.131267 -1.62787 -3.82991
LeftUpLeg  -14.1842 1.822 -12.2374
LeftLeg  25.2577 6.93752 3.90397
LeftFoot  -0.965015 -0.992891 10.9649
LeftToes  -3.54706e-010 1.16038e-010 5.28031e-012
1421
root  -13.4648 37.7321 -4.69322 -103.434 -83.2632 92.3176
RightUpLeg  5.59191 -3.75842 -14.5315
RightLeg  61.4329 4.30142 7.98843
RightFoot  10.5451 -1.78244 9.27901
RightToes  2.32829e-010 0 -3.6325e-017
Spine  9.49892 0.264508 -4.63952
Spine1  10.4339 0.680883 -5.73815
HEad  -2.36708 5.94046 -4.7996
LeftShoulder1  0.129374 3.13049 -28.471
LeftArm  -11.1736 12.9386 -32.9668
LeftForeArm  60.2333 -78.8342 -72.1709
LeftHand  0.0524885 2.26469 -2.45854
RightShoulder  -0.269796 -4.33703 25.1087
RightArm  -5.65986 -18.18 36.4021
RightForeArm  114.882 73.542 138.159
RightHand  -0.131796 -1.82129 -4.03077
LeftUpLeg  -12.4748 2.38953 -13.1806
LeftLeg  25.661 7.58024 4.30311
LeftFoot  -3.19575 -0.741482 10.6384
LeftToes  -3.54706e-010 1.16038e-010 5.28031e-012
1422
root  -14.639 37.9808 -4.70755 -107.489 -83.1454 96.2334
RightUpLeg  -0.72036 -0.860301 -13.7057
RightLeg  67.0835 3.62257 8.7097
RightFoot  5.55718 -1.40028 9.66294
RightToes  2.32829e-010 0 -3.6325e-017
Spine  10.0668 0.38795 -5.45664
Spine1  10.489 0.412863 -5.07523
HEad  -2.09311 6.22957 -5.33725
LeftShoulder1  0.207128 2.90394 -28.468
LeftArm  -10.9394 13.1692 -32.8569
LeftForeArm  57.7022 -78.6788 -70.3429
LeftHand  0.02529 2.44143 -1.56299
RightShoulder  -0.277251 -4.35829 25.1646
RightArm  -5.51777 -17.2269 36.3362
RightForeArm  113.463 74.0374 136.522
RightHand  -0.127996 -1.66061 -3.76126
LeftUpLeg  -9.9429 3.57721 -12.9994
LeftLeg  25.0728 7.09243 3.95937
LeftFoot  -5.16115 -0.517402 10.1549
LeftToes  -3.54706e-010 1.16038e-010 5.28031e-012
1423
root  -15.812 38.2857 -4.73217 -107.216 -83.7269 95.9879
RightUpLeg  -6.63069 0.99386 -12.3839
RightLeg  68.7614 3.23 8.44105
RightFoot  4.68191 -1.17157 8.53416
RightToes  2.32829e-010 0 -3.6325e-017
Spine  10.4153 0.251269 -5.37456
Spine1  10.5657 0.106511 -4.84747
HEad  -1.22524 5.57698 -5.15929
LeftShoulder1  0.28179 2.67421 -27.8068
LeftArm  -10.8271 12.7221 -33.7149
LeftForeArm  54.1947 -78.3772 -65.9087
LeftHand  0.03754 2.09129 -1.75996
RightShoulder  -0.345803 -4.56421 25.5488
RightArm  -5.62742 -16.9672 36.3142
RightForeArm  112.953 74.1115 136.209
RightHand  -0.135285 -1.85059 -4.17462
LeftUpLeg  -7.23231 4.49167 -12.139
LeftLeg  23.8433 6.31065 3.32337
LeftFoot  -6.70177 -0.366935 10.0054
LeftToes  -3.54706e-010 1.16038e-010 5.28031e-012
1424
root  -17.0272 38.5631 -4.73133 -98.2515 -84.6117 87.2638
RightUpLeg  -11.5233 1.5971 -11.2397
RightLeg  66.9604 2.90947 6.87298
RightFoot  2.79447 -0.894614 7.35021
RightToes  2.32829e-010 0 -3.6325e-017
Spine  10.4446 -0.332021 -5.16761
Spine1  10.5061 -0.682463 -4.03868
HEad  -1.09266 5.63706 -5.15292
LeftShoulder1  0.210238 2.89227 -28.2204
LeftArm  -10.5612 12.0231 -33.7757
LeftForeArm  52.2907 -78.1903 -63.8585
LeftHand  0.0568112 1.89389 -2.27725
RightShoulder  -0.311128 -4.46187 25.3266
RightArm  -6.2032 -17.2689 36.4529
RightForeArm  112.563 74.1833 135.924
RightHand  -0.137607 -1.64861 -4.0552
LeftUpLeg  -4.59469 3.57088 -11.2669
LeftLeg  22.5552 6.14078 2.92055
LeftFoot  -8.1818 -0.209781 9.38814
LeftToes  -3.54706e-010 1.16038e-010 5.28031e-012
1425
root  -18.2674 38.8277 -4.72551 -89.3751 -85.1951 78.6361
RightUpLeg  -15.4574 2.63669 -10.1833
RightLeg  61.6851 2.82384 5.18411
RightFoot  1.45874 -0.661724 6.03847
RightToes  2.32829e-010 0 -3.6325e-017
Spine  10.3177 -0.698827 -5.22188
Spine1  10.4227 -1.26973 -2.91873
HEad  -0.695006 4.87416 -4.92675
LeftShoulder1  0.194608 2.94034 -28.3921
LeftArm  -10.4553 11.5059 -34.2134
LeftForeArm  50.4854 -77.9956 -61.9137
LeftHand  0.0466086 1.83691 -1.87562
RightShoulder  -0.287011 -4.39139 25.1034
RightArm  -6.85073 -18.1029 36.6143
RightForeArm  113.515 73.9322 136.835
RightHand  -0.133016 -2.01989 -4.23985
LeftUpLeg  -1.68177 3.76814 -10.3517
LeftLeg  20.6184 5.24717 2.11388
LeftFoot  -9.41541 -0.0978863 9.19212
LeftToes  -3.54706e-010 1.16038e-010 5.28031e-012
1426
root  -19.5049 38.9909 -4.73849 -81.7089 -85.4886 71.2472
RightUpLeg  -18.0111 3.56043 -9.59508
RightLeg  53.2044 2.92255 3.8014
RightFoot  -0.781866 -0.65742 7.01738
RightToes  2.32829e-010 0 -3.6325e-017
Spine  10.4328 -0.853461 -5.48437
Spine1  9.91505 -1.67861 -1.60078
HEad  -0.57599 4.45517 -4.87011
LeftShoulder1  0.194602 2.9409 -28.4577
LeftArm  -10.1433 11.0453 -34.5805
LeftForeArm  49.8473 -77.9355 -61.4543
LeftHand  0.0192099 2.06585 -1.07707
RightShoulder  -0.269617 -4.34547 24.7352
RightArm  -7.36842 -18.8907 36.4508
RightForeArm  114.805 73.7791 137.493
RightHand  -0.104567 -2.23513 -3.45658
LeftUpLeg  1.00577 4.314 -9.52665
LeftLeg  18.9955 4.17389 1.39796
LeftFoot  -10.7866 0.0204736 9.2323
LeftToes  -3.54706e-010 1.16038e-010 5.28031e-012
1427
root  -20.763 39.0806 -4.73487 -71.7522 -85.4467 61.4653
RightUpLeg  -18.8933 3.56264 -9.35705
RightLeg  41.6946 3.08392 2.71019
RightFoot  -1.34711 -0.5493 6.17526
RightToes  2.32829e-010 0 -3.6325e-017
Spine  10.3692 -1.21078 -5.10025
Spine1  9.80882 -1.88994 -1.48386
HEad  -0.565887 4.39813 -4.48422
LeftShoulder1  0.242928 2.79261 -27.998
LeftArm  -9.87493 10.7791 -34.9426
LeftForeArm  50.3837 -77.9793 -61.7382
LeftHand  0.0472397 1.70024 -1.81501
RightShoulder  -0.328536 -4.51399 25.428
RightArm  -7.7005 -19.2519 35.8575
RightForeArm  114.79 73.5683 138.076
RightHand  -0.138409 -1.56836 -4.01181
LeftUpLeg  3.63182 4.91162 -8.82936
LeftLeg  17.8183 2.87346 0.727485
LeftFoot  -12.2352 0.146466 9.31861
LeftToes  -3.54706e-010 1.16038e-010 5.28031e-012
1428
root  -22.0815 39.0991 -4.74554 -63.6837 -85.0305 53.4813
RightUpLeg  -18.1223 3.02589 -9.30314
RightLeg  27.6472 3.15249 1.60491
RightFoot  -1.49367 -0.558556 6.35478
RightToes  2.32829e-010 0 -3.6325e-017
Spine  10.0874 -1.37458 -5.69737
Spine1  10.126 -2.32875 -0.0373178
HEad  -0.64354 4.34292 -4.69746
LeftShoulder1  0.238763 2.80709 -28.1323
LeftArm  -9.51665 10.3483 -34.9048
LeftForeArm  50.9312 -78.0425 -62.3572
LeftHand  0.035648 1.89612 -1.55921
RightShoulder  -0.318455 -4.47982 25.4861
RightArm  -8.07706 -19.6115 35.5756
RightForeArm  115.32 73.421 138.561
RightHand  -0.12399 -2.03606 -3.98119
LeftUpLeg  6.50442 5.74723 -8.11978
LeftLeg  16.5688 1.38001 -0.138767
LeftFoot  -13.8575 0.285081 9.1666
LeftToes  -3.54706e-010 1.16038e-010 5.28031e-012
1429
root  -23.4519 39.052 -4.73526 -58.5677 -84.3279 48.8049
RightUpLeg  -16.8999 -0.504645 -8.92885
RightLeg  13.2989 6.20868 0.953001
RightFoot  -1.89419 -0.610915 7.24883
RightToes  2.32829e-010 0 -3.6325e-017
Spine  9.03351 -1.54648 -5.72001
Spine1  10.8667 -2.49088 0.551517
HEad  -0.790783 3.13884 -4.68911
LeftShoulder1  0.280877 2.67901 -27.8904
LeftArm  -9.29883 9.47505 -35.4842
LeftForeArm  49.2798 -77.8355 -60.3421
LeftHand  0.0346174 2.02275 -1.60544
RightShoulder  -0.367711 -4.631 25.6036
RightArm  -8.56358 -20.0966 35.5613
RightForeArm  115.89 73.2464 139.117
RightHand  -0.130865 -1.73822 -3.92169
LeftUpLeg  9.12201 6.01112 -7.92951
LeftLeg  15.1652 0.404446 -0.58353
LeftFoot  -15.4107 0.407366 8.83932
LeftToes  -3.54706e-010 1.16038e-010 5.28031e-012
1430
root  -24.8347 38.9236 -4.83696 -59.7632 -83.8911 49.9901
RightUpLeg  -15.6072 -6.35599 -6.83455
RightLeg  1.79198 11.6743 -1.14915
RightFoot  -2.72684 -0.651462 8.37841
RightToes  2.32829e-010 0 -3.6325e-017
Spine  8.8865 -1.13577 -6.64108
Spine1  11.0324 -2.49403 2.28811
HEad  -0.533859 2.9298 -5.04558
LeftShoulder1  0.288651 2.66617 -28.3333
LeftArm  -8.86979 8.94634 -35.2854
LeftForeArm  48.9954 -77.7806 -59.7593
LeftHand  0.0412167 1.87769 -1.73306
RightShoulder  -0.334114 -4.53469 25.3195
RightArm  -9.04299 -20.7095 35.7861
RightForeArm  116.012 73.2468 139.136
RightHand  -0.132583 -1.8773 -4.13326
LeftUpLeg  12.0525 6.72931 -7.36697
LeftLeg  14.2341 -0.716908 -1.20343
LeftFoot  -17.1372 0.533997 8.49775
LeftToes  -3.54706e-010 1.16038e-010 5.28031e-012
1431
root  -26.2376 38.7038 -4.95087 -59.6277 -83.5356 49.8625
RightUpLeg  -15.451 -7.03135 -6.36265
RightLeg  -2.7097 8.55066 -1.60699
RightFoot  -2.71179 -0.626389 8.00131
RightToes  2.32829e-010 0 -3.6325e-017
Spine  8.96017 -0.756694 -7.34355
Spine1  10.9474 -2.55342 3.92638
HEad  -0.0173933 2.61373 -5.50816
LeftShoulder1  0.234701 2.83014 -28.695
LeftArm  -8.4232 8.28526 -35.1729
LeftForeArm  47.977 -77.662 -58.8547
LeftHand  0.0274254 2.19418 -1.46741
RightShoulder  -0.327636 -4.51374 25.2865
RightArm  -9.05276 -20.9416 35.554
RightForeArm  115.479 73.407 138.624
RightHand  -0.139378 -1.1719 -3.69065
LeftUpLeg  14.4676 7.19474 -6.87757
LeftLeg  14.3102 -1.53768 -1.28754
LeftFoot  -19.0339 0.682192 8.39542
LeftToes  -3.54706e-010 1.16038e-010 5.28031e-012
